<?xml version="1.0" encoding="UTF-8"?>
<svg width="512px" height="512px" viewBox="0 0 512 512" version="1.1" xmlns="http://www.w3.org/2000/svg">
    <title>マップリンクアイコン</title>
    <defs>
        <linearGradient x1="0%" y1="0%" x2="100%" y2="100%" id="mapGradient">
            <stop stop-color="#A5F3FC" offset="0%"></stop>
            <stop stop-color="#0EA5E9" offset="50%"></stop>
            <stop stop-color="#0369A1" offset="100%"></stop>
        </linearGradient>
        <linearGradient x1="50%" y1="0%" x2="50%" y2="100%" id="shareGradient">
            <stop stop-color="#60A5FA" offset="0%"></stop>
            <stop stop-color="#3B82F6" offset="100%"></stop>
        </linearGradient>
    </defs>
    <g stroke="none" stroke-width="1" fill="none" fill-rule="evenodd">
        <!-- 丸いベース背景 -->
        <circle fill="url(#mapGradient)" cx="256" cy="256" r="220"></circle>
        
        <!-- マップグリッド（上部で淡く) -->
        <path d="M110,110 L402,110 L402,402 L110,402 Z" stroke="#FFFFFF" stroke-width="6" opacity="0.3"></path>
        <path d="M160,110 L160,402" stroke="#FFFFFF" stroke-width="3" opacity="0.3"></path>
        <path d="M210,110 L210,402" stroke="#FFFFFF" stroke-width="3" opacity="0.3"></path>
        <path d="M260,110 L260,402" stroke="#FFFFFF" stroke-width="3" opacity="0.3"></path>
        <path d="M310,110 L310,402" stroke="#FFFFFF" stroke-width="3" opacity="0.3"></path>
        <path d="M360,110 L360,402" stroke="#FFFFFF" stroke-width="3" opacity="0.3"></path>
        <path d="M110,160 L402,160" stroke="#FFFFFF" stroke-width="3" opacity="0.3"></path>
        <path d="M110,210 L402,210" stroke="#FFFFFF" stroke-width="3" opacity="0.3"></path>
        <path d="M110,260 L402,260" stroke="#FFFFFF" stroke-width="3" opacity="0.3"></path>
        <path d="M110,310 L402,310" stroke="#FFFFFF" stroke-width="3" opacity="0.3"></path>
        <path d="M110,360 L402,360" stroke="#FFFFFF" stroke-width="3" opacity="0.3"></path>
        
        <!-- ロケーションピン -->
        <g transform="translate(190, 140)">
            <path d="M66,20 C66,8.954 57.046,0 46,0 C34.954,0 26,8.954 26,20 C26,37.6 46,60 46,60 C46,60 66,37.6 66,20 Z" fill="#FFFFFF"></path>
            <circle cx="46" cy="20" r="10" fill="url(#mapGradient)"></circle>
        </g>
        
        <!-- シェア要素（右下の放射状ライン） -->
        <g transform="translate(256, 256)">
            <circle cx="44" cy="44" r="60" fill="url(#shareGradient)"></circle>
            <path d="M44,14 L44,74" stroke="#FFFFFF" stroke-width="6" stroke-linecap="round"></path>
            <path d="M14,44 L74,44" stroke="#FFFFFF" stroke-width="6" stroke-linecap="round"></path>
            <path d="M24,24 L64,64" stroke="#FFFFFF" stroke-width="6" stroke-linecap="round"></path>
            <path d="M24,64 L64,24" stroke="#FFFFFF" stroke-width="6" stroke-linecap="round"></path>
        </g>
        
        <!-- 高光沢効果 -->
        <path d="M256,36 C152.5,36 68,120.5 68,224 C68,280 93.5,330 134,363 C159,384.5 190,398.5 224,403 C212,395.5 204,382 204,366 C204,335.5 228.5,311 259,311 C289.5,311 314,335.5 314,366 C314,382 306,395.5 294,403 C328,398.5 359,384.5 384,363 C424.5,330 450,280 450,224 C450,120.5 365.5,36 262,36 L256,36 Z" fill="#FFFFFF" opacity="0.2"></path>
    </g>
</svg> 