<?xml version="1.0" encoding="UTF-8"?>
<svg xmlns="http://www.w3.org/2000/svg" viewBox="0 0 24 24" width="20" height="20">
  <path d="M19.59 6.69a4.83 4.83 0 01-3.77-4.25V2h-3.45v13.67a2.89 2.89 0 01-5.2 1.74 2.89 2.89 0 012.31-4.64c.298.001.595.035.887.101V9.4a6.33 6.33 0 00-1-.08A6.34 6.34 0 006 20.97a6.34 6.34 0 10.31-12.67v3.5a9.8 9.8 0 01.68.03 2.9 2.9 0 01.65 5.63h.13a2.89 2.89 0 002.88-2.9V6.7h-3.3A4.83 4.83 0 0119.59 6.7v3.46a8.29 8.29 0 01-4.3-1.19v3.45a11.76 11.76 0 004.3 1.2v-6.93z" fill="#25F4EE"/>
  <path d="M19.59 10.16v-3.46a4.83 4.83 0 01-3.77-4.25V2h-3.45v13.67a2.89 2.89 0 01-5.2 1.74 2.89 2.89 0 012.31-4.64c.298.001.595.035.887.101V9.4a6.33 6.33 0 00-1-.08A6.34 6.34 0 006 20.97a6.34 6.34 0 10.31-12.67v3.5a9.8 9.8 0 01.68.03 2.9 2.9 0 01.65 5.63h.13a2.89 2.89 0 002.88-2.9V6.7h-3.3" fill="#FE2C55" opacity="0.6"/>
</svg> 