<?xml version="1.0" encoding="UTF-8"?>
<svg xmlns="http://www.w3.org/2000/svg" viewBox="0 0 24 24" width="20" height="20">
  <path d="M21.6 0H2.4C1.08 0 0 1.08 0 2.4v19.2C0 22.92 1.08 24 2.4 24h19.2c1.32 0 2.4-1.08 2.4-2.4V2.4C24 1.08 22.92 0 21.6 0z" fill="#003580"/>
  <path d="M7.2 15.6c-2.4 0-4.32-1.92-4.32-4.32s1.92-4.32 4.32-4.32c2.4 0 4.32 1.92 4.32 4.32 0 2.4-1.92 4.32-4.32 4.32zm0-6.72c-1.32 0-2.4 1.08-2.4 2.4s1.08 2.4 2.4 2.4 2.4-1.08 2.4-2.4-1.08-2.4-2.4-2.4zm9.6 6.72c-2.4 0-4.32-1.92-4.32-4.32s1.92-4.32 4.32-4.32c2.4 0 4.32 1.92 4.32 4.32 0 2.4-1.92 4.32-4.32 4.32zm0-6.72c-1.32 0-2.4 1.08-2.4 2.4s1.08 2.4 2.4 2.4 2.4-1.08 2.4-2.4-1.08-2.4-2.4-2.4z" fill="#FFFFFF"/>
</svg> 