<svg width="40" height="40" viewBox="0 0 40 40" fill="none" xmlns="http://www.w3.org/2000/svg">
  <!-- 外部リンクの矢印部分（さらに80%サイズ、中央寄せ） -->
  <path d="M24.3008 6.4C23.9475 6.426 23.6864 6.6778 23.712 6.96C23.7376 7.2422 23.9898 7.4496 24.272 7.424L31.04 7.424L20.352 18.128C20.1997 18.2515 20.1293 18.4499 20.1741 18.6419C20.2176 18.832 20.368 18.9824 20.5581 19.0259C20.7501 19.0707 20.9485 19.0003 21.072 18.848L31.776 8.16L31.776 14.8C31.7741 14.9837 31.8701 15.1558 32.0301 15.2499C32.1901 15.3421 32.3859 15.3421 32.5459 15.2499C32.7059 15.1558 32.8019 14.9837 32.8 14.8L32.8 6.4L24.4 6.4C24.3872 6.4 24.3744 6.4 24.3616 6.4C24.3488 6.4 24.336 6.4 24.3008 6.4Z" fill="#6B7280"/>
  
  <!-- 四角形の箱部分（さらに80%サイズ、中央寄せ） -->
  <path d="M7.424 11.52C7.1565 11.52 6.8819 11.6141 6.688 11.808C6.4941 12.0019 6.4 12.2765 6.4 12.544L6.4 32.576C6.4 32.8435 6.4941 33.1181 6.688 33.312C6.8819 33.5059 7.1565 33.6 7.424 33.6L27.456 33.6C27.7235 33.6 27.9981 33.5059 28.192 33.312C28.3859 33.1181 28.48 32.8435 28.48 32.576L28.48 16.416C28.4819 16.2317 28.3859 16.0602 28.2259 15.9661C28.0659 15.8739 27.8701 15.8739 27.7101 15.9661C27.5501 16.0602 27.4541 16.2317 27.456 16.416L27.456 32.576L7.424 32.576L7.424 12.544L23.584 12.544C23.7683 12.5459 23.9398 12.4499 24.0339 12.2899C24.1261 12.1299 24.1261 11.9341 24.0339 11.7741C23.9398 11.6141 23.7683 11.5181 23.584 11.52Z" fill="#6B7280"/>
</svg> 