<?xml version="1.0" encoding="utf-8" ?>
<svg baseProfile="tiny" height="174px" version="1.2" viewBox="0 0 200 174" width="200px" xmlns="http://www.w3.org/2000/svg" xmlns:ev="http://www.w3.org/2001/xml-events" xmlns:xlink="http://www.w3.org/1999/xlink"><defs /><path d="M 40 146 L 39 147 L 43 151 L 44 151 L 49 156 L 50 156 L 54 160 L 55 160 L 57 162 L 65 162 L 66 161 L 74 161 L 75 160 L 81 160 L 82 159 L 88 159 L 89 158 L 96 158 L 97 157 L 103 157 L 104 156 L 109 156 L 110 155 L 117 155 L 118 154 L 124 154 L 125 153 L 130 153 L 131 152 L 138 152 L 139 151 L 147 151 L 148 150 L 154 150 L 155 149 L 162 149 L 163 148 L 169 148 L 170 147 L 172 147 L 171 146 Z M 58 20 L 58 134 L 59 135 L 80 135 L 80 101 L 81 100 L 89 100 L 90 99 L 92 99 L 93 100 L 95 100 L 99 104 L 99 105 L 101 107 L 101 108 L 104 111 L 104 112 L 109 117 L 109 118 L 110 119 L 110 120 L 114 124 L 114 125 L 116 127 L 116 128 L 119 131 L 119 132 L 122 135 L 149 135 L 149 134 L 148 133 L 148 132 L 146 130 L 146 129 L 143 126 L 143 125 L 139 121 L 139 120 L 137 118 L 137 117 L 134 114 L 134 113 L 130 109 L 130 108 L 127 105 L 127 104 L 124 101 L 124 100 L 121 97 L 121 96 L 118 93 L 118 92 L 126 84 L 126 83 L 128 81 L 128 80 L 129 79 L 129 78 L 130 77 L 130 76 L 131 75 L 131 74 L 132 73 L 132 70 L 133 69 L 133 65 L 134 64 L 134 56 L 133 55 L 133 51 L 132 50 L 132 47 L 131 46 L 131 45 L 130 44 L 130 43 L 129 42 L 129 41 L 128 40 L 128 39 L 127 38 L 127 37 L 123 33 L 123 32 L 122 32 L 117 27 L 116 27 L 115 26 L 114 26 L 112 24 L 110 24 L 109 23 L 107 23 L 106 22 L 104 22 L 103 21 L 98 21 L 97 20 Z M 82 42 L 83 43 L 85 43 L 86 42 L 95 42 L 96 43 L 99 43 L 100 44 L 102 44 L 104 46 L 105 46 L 108 49 L 108 50 L 109 51 L 109 52 L 110 53 L 110 54 L 111 55 L 111 65 L 110 66 L 110 67 L 109 68 L 109 69 L 103 75 L 102 75 L 101 76 L 99 76 L 98 77 L 81 77 L 80 76 L 80 44 Z " fill="#00B900" fill-rule="evenodd" /></svg>